<?xml version="1.0" encoding="UTF-8"?>
<svg version="1.1" xmlns="http://www.w3.org/2000/svg" width="500" height="500">
<path d="M0 0 C0.70744354 0.00141495 1.41488708 0.0028299 2.14376831 0.00428772 C4.40578419 0.00989025 6.66770148 0.02244307 8.9296875 0.03515625 C10.46223815 0.04017093 11.99479036 0.04473389 13.52734375 0.04882812 C17.28649638 0.05986048 21.04557522 0.07712673 24.8046875 0.09765625 C23.38406235 3.32455605 21.66223309 5.49708137 19.1796875 7.98828125 C18.47328125 8.69726562 17.766875 9.40625 17.0390625 10.13671875 C16.30171875 10.86632812 15.564375 11.5959375 14.8046875 12.34765625 C14.06734375 13.09273437 13.33 13.8378125 12.5703125 14.60546875 C11.86390625 15.30929688 11.1575 16.013125 10.4296875 16.73828125 C9.78257812 17.38313477 9.13546875 18.02798828 8.46875 18.69238281 C6.8046875 20.09765625 6.8046875 20.09765625 4.8046875 20.09765625 C4.8046875 20.75765625 4.8046875 21.41765625 4.8046875 22.09765625 C4.1446875 22.09765625 3.4846875 22.09765625 2.8046875 22.09765625 C2.8046875 22.75765625 2.8046875 23.41765625 2.8046875 24.09765625 C2.1446875 24.09765625 1.4846875 24.09765625 0.8046875 24.09765625 C0.8046875 24.75765625 0.8046875 25.41765625 0.8046875 26.09765625 C0.1446875 26.09765625 -0.5153125 26.09765625 -1.1953125 26.09765625 C-1.1953125 26.75765625 -1.1953125 27.41765625 -1.1953125 28.09765625 C-1.8553125 28.09765625 -2.5153125 28.09765625 -3.1953125 28.09765625 C-3.1953125 28.75765625 -3.1953125 29.41765625 -3.1953125 30.09765625 C-3.8553125 30.09765625 -4.5153125 30.09765625 -5.1953125 30.09765625 C-5.1953125 30.75765625 -5.1953125 31.41765625 -5.1953125 32.09765625 C-5.8553125 32.09765625 -6.5153125 32.09765625 -7.1953125 32.09765625 C-7.1953125 32.75765625 -7.1953125 33.41765625 -7.1953125 34.09765625 C-7.8553125 34.09765625 -8.5153125 34.09765625 -9.1953125 34.09765625 C-9.5253125 35.08765625 -9.8553125 36.07765625 -10.1953125 37.09765625 C-10.8553125 37.09765625 -11.5153125 37.09765625 -12.1953125 37.09765625 C-12.8553125 38.41765625 -13.5153125 39.73765625 -14.1953125 41.09765625 C-14.8553125 41.09765625 -15.5153125 41.09765625 -16.1953125 41.09765625 C-16.1953125 41.75765625 -16.1953125 42.41765625 -16.1953125 43.09765625 C-16.8553125 43.09765625 -17.5153125 43.09765625 -18.1953125 43.09765625 C-18.1953125 43.75765625 -18.1953125 44.41765625 -18.1953125 45.09765625 C-18.8553125 45.09765625 -19.5153125 45.09765625 -20.1953125 45.09765625 C-20.1953125 45.75765625 -20.1953125 46.41765625 -20.1953125 47.09765625 C-20.8553125 47.09765625 -21.5153125 47.09765625 -22.1953125 47.09765625 C-22.4634375 47.73703125 -22.7315625 48.37640625 -23.0078125 49.03515625 C-24.1953125 51.09765625 -24.1953125 51.09765625 -27.1953125 52.09765625 C-27.5046875 52.73703125 -27.8140625 53.37640625 -28.1328125 54.03515625 C-29.4295463 56.5523454 -30.6174862 57.06652573 -33.1953125 58.09765625 C-33.1953125 58.75765625 -33.1953125 59.41765625 -33.1953125 60.09765625 C-35.5703125 62.72265625 -35.5703125 62.72265625 -38.1953125 65.09765625 C-38.8553125 65.09765625 -39.5153125 65.09765625 -40.1953125 65.09765625 C-40.1953125 65.75765625 -40.1953125 66.41765625 -40.1953125 67.09765625 C-40.8553125 67.09765625 -41.5153125 67.09765625 -42.1953125 67.09765625 C-42.1953125 67.75765625 -42.1953125 68.41765625 -42.1953125 69.09765625 C-42.8553125 69.09765625 -43.5153125 69.09765625 -44.1953125 69.09765625 C-44.1953125 69.75765625 -44.1953125 70.41765625 -44.1953125 71.09765625 C-44.8553125 71.09765625 -45.5153125 71.09765625 -46.1953125 71.09765625 C-46.1953125 71.75765625 -46.1953125 72.41765625 -46.1953125 73.09765625 C-46.8553125 73.09765625 -47.5153125 73.09765625 -48.1953125 73.09765625 C-48.1953125 73.75765625 -48.1953125 74.41765625 -48.1953125 75.09765625 C-49.5703125 76.72265625 -49.5703125 76.72265625 -51.1953125 78.09765625 C-51.8553125 78.09765625 -52.5153125 78.09765625 -53.1953125 78.09765625 C-53.1953125 78.75765625 -53.1953125 79.41765625 -53.1953125 80.09765625 C-53.8553125 80.09765625 -54.5153125 80.09765625 -55.1953125 80.09765625 C-55.1953125 80.75765625 -55.1953125 81.41765625 -55.1953125 82.09765625 C-55.8553125 82.09765625 -56.5153125 82.09765625 -57.1953125 82.09765625 C-57.1953125 82.75765625 -57.1953125 83.41765625 -57.1953125 84.09765625 C-57.8553125 84.09765625 -58.5153125 84.09765625 -59.1953125 84.09765625 C-59.5975 84.99484375 -59.5975 84.99484375 -60.0078125 85.91015625 C-61.18024717 88.06990433 -62.38900532 89.45555881 -64.1953125 91.09765625 C-62.54834554 95.41312664 -59.33769199 98.1068953 -56.0703125 101.22265625 C-54.05747759 103.14337057 -52.11699038 105.08195132 -50.1953125 107.09765625 C-50.1953125 107.75765625 -50.1953125 108.41765625 -50.1953125 109.09765625 C-49.5353125 109.09765625 -48.8753125 109.09765625 -48.1953125 109.09765625 C-48.1953125 109.75765625 -48.1953125 110.41765625 -48.1953125 111.09765625 C-47.5353125 111.09765625 -46.8753125 111.09765625 -46.1953125 111.09765625 C-46.1953125 111.75765625 -46.1953125 112.41765625 -46.1953125 113.09765625 C-45.5353125 113.09765625 -44.8753125 113.09765625 -44.1953125 113.09765625 C-42.71484375 114.6015625 -42.71484375 114.6015625 -41.0078125 116.66015625 C-38.00853757 120.20761799 -34.85536118 123.46288497 -31.48046875 126.65234375 C-30.1953125 128.09765625 -30.1953125 128.09765625 -30.1953125 130.09765625 C-29.5353125 130.09765625 -28.8753125 130.09765625 -28.1953125 130.09765625 C-26.890625 131.42578125 -26.890625 131.42578125 -25.3203125 133.34765625 C-21.50871297 137.86330919 -17.36283523 141.96708541 -13.10791016 146.05957031 C-11.76756905 147.36961399 -10.47675375 148.72994391 -9.1953125 150.09765625 C-9.1953125 150.75765625 -9.1953125 151.41765625 -9.1953125 152.09765625 C-8.5353125 152.09765625 -7.8753125 152.09765625 -7.1953125 152.09765625 C-7.1953125 152.75765625 -7.1953125 153.41765625 -7.1953125 154.09765625 C-6.5353125 154.09765625 -5.8753125 154.09765625 -5.1953125 154.09765625 C-5.1953125 154.75765625 -5.1953125 155.41765625 -5.1953125 156.09765625 C-4.5353125 156.09765625 -3.8753125 156.09765625 -3.1953125 156.09765625 C-1.57421875 157.7421875 -1.57421875 157.7421875 0.2421875 159.91015625 C2.77808082 162.9222889 2.77808082 162.9222889 5.52734375 165.734375 C6.8046875 167.09765625 6.8046875 167.09765625 6.8046875 169.09765625 C8.1246875 169.75765625 9.4446875 170.41765625 10.8046875 171.09765625 C10.8046875 171.75765625 10.8046875 172.41765625 10.8046875 173.09765625 C11.4646875 173.09765625 12.1246875 173.09765625 12.8046875 173.09765625 C17.8046875 178.57384673 17.8046875 178.57384673 17.8046875 181.09765625 C-15.8553125 181.09765625 -49.5153125 181.09765625 -84.1953125 181.09765625 C-84.1953125 180.43765625 -84.1953125 179.77765625 -84.1953125 179.09765625 C-84.8553125 179.09765625 -85.5153125 179.09765625 -86.1953125 179.09765625 C-87.67578125 177.59375 -87.67578125 177.59375 -89.3828125 175.53515625 C-91.72811008 172.77226945 -94.10360655 170.13085868 -96.6953125 167.59765625 C-99.73696021 164.61008228 -102.51129659 161.45777276 -105.28515625 158.22265625 C-108.19443586 154.98615705 -111.3316 151.99042917 -114.47265625 148.98046875 C-116.1953125 147.09765625 -116.1953125 147.09765625 -116.1953125 145.09765625 C-118.13606111 145.37383158 -118.13606111 145.37383158 -120.1953125 146.09765625 C-120.8553125 147.08765625 -121.5153125 148.07765625 -122.1953125 149.09765625 C-122.8553125 149.09765625 -123.5153125 149.09765625 -124.1953125 149.09765625 C-124.1953125 149.75765625 -124.1953125 150.41765625 -124.1953125 151.09765625 C-124.8553125 151.09765625 -125.5153125 151.09765625 -126.1953125 151.09765625 C-126.1953125 151.75765625 -126.1953125 152.41765625 -126.1953125 153.09765625 C-126.8553125 153.09765625 -127.5153125 153.09765625 -128.1953125 153.09765625 C-128.1953125 153.75765625 -128.1953125 154.41765625 -128.1953125 155.09765625 C-129.76953125 156.61328125 -129.76953125 156.61328125 -131.8828125 158.34765625 C-134.44166139 160.51662799 -136.53468061 162.50489798 -138.6953125 165.09765625 C-141.28456981 168.20476502 -144.0464552 170.69428227 -147.1328125 173.2890625 C-149.60175907 175.45406678 -151.88749544 177.76186565 -154.1953125 180.09765625 C-155.06671875 180.95746094 -155.938125 181.81726563 -156.8359375 182.703125 C-157.69703125 183.55519531 -158.558125 184.40726563 -159.4453125 185.28515625 C-160.31671875 186.14496094 -161.188125 187.00476563 -162.0859375 187.890625 C-164.22525488 189.91196691 -164.22525488 189.91196691 -165.1953125 192.09765625 C-165.8553125 192.09765625 -166.5153125 192.09765625 -167.1953125 192.09765625 C-167.1953125 192.75765625 -167.1953125 193.41765625 -167.1953125 194.09765625 C-168.76953125 195.6484375 -168.76953125 195.6484375 -170.8828125 197.41015625 C-174.16025977 200.15679285 -177.18311415 203.0623998 -180.1953125 206.09765625 C-178.99755692 206.09543564 -177.79980133 206.09321503 -176.56575012 206.09092712 C-171.83178885 206.08239383 -167.0978264 206.0748309 -162.36386299 206.06758881 C-160.17635637 206.06418877 -157.98885 206.06062257 -155.80134392 206.0568924 C-142.67764654 206.0350796 -129.55432666 206.03273406 -116.43066406 206.07348633 C-111.6243503 206.08727304 -106.81803491 206.10036219 -102.01171875 206.11328125 C-100.23406443 206.11852593 -100.23406443 206.11852593 -98.42049789 206.12387657 C-84.65420635 206.16001018 -70.91818362 206.0527803 -57.16015625 205.58203125 C-22.09924042 204.57586114 -22.09924042 204.57586114 -11.18847656 214.67895508 C-7.22478091 218.71737614 -3.98926617 223.18203028 -1.1953125 228.09765625 C-1.5253125 228.75765625 -1.8553125 229.41765625 -2.1953125 230.09765625 C-79.0853125 230.09765625 -155.9753125 230.09765625 -235.1953125 230.09765625 C-235.1953125 227.09765625 -235.1953125 227.09765625 -233.85009766 225.38012695 C-233.23440918 224.76741943 -232.6187207 224.15471191 -231.984375 223.5234375 C-231.31664062 222.85634766 -230.64890625 222.18925781 -229.9609375 221.50195312 C-229.25453125 220.81166016 -228.548125 220.12136719 -227.8203125 219.41015625 C-227.12164062 218.70826172 -226.42296875 218.00636719 -225.703125 217.28320312 C-220.46214468 212.09765625 -220.46214468 212.09765625 -218.1953125 212.09765625 C-217.958125 211.535625 -217.7209375 210.97359375 -217.4765625 210.39453125 C-215.90583553 207.57871583 -213.98059786 205.61810209 -211.6953125 203.34765625 C-210.50421875 202.14882813 -210.50421875 202.14882813 -209.2890625 200.92578125 C-207.1953125 199.09765625 -207.1953125 199.09765625 -205.1953125 199.09765625 C-205.1953125 198.43765625 -205.1953125 197.77765625 -205.1953125 197.09765625 C-204.5353125 197.09765625 -203.8753125 197.09765625 -203.1953125 197.09765625 C-202.9375 196.515 -202.6796875 195.93234375 -202.4140625 195.33203125 C-201.09697233 192.91736595 -199.64442866 191.28025448 -197.6953125 189.34765625 C-197.086875 188.7340625 -196.4784375 188.12046875 -195.8515625 187.48828125 C-194.1953125 186.09765625 -194.1953125 186.09765625 -192.1953125 186.09765625 C-192.1953125 185.43765625 -192.1953125 184.77765625 -192.1953125 184.09765625 C-191.5353125 184.09765625 -190.8753125 184.09765625 -190.1953125 184.09765625 C-189.9375 183.515 -189.6796875 182.93234375 -189.4140625 182.33203125 C-188.09697233 179.91736595 -186.64442866 178.28025448 -184.6953125 176.34765625 C-184.086875 175.7340625 -183.4784375 175.12046875 -182.8515625 174.48828125 C-181.1953125 173.09765625 -181.1953125 173.09765625 -179.1953125 173.09765625 C-179.1953125 172.43765625 -179.1953125 171.77765625 -179.1953125 171.09765625 C-178.5353125 171.09765625 -177.8753125 171.09765625 -177.1953125 171.09765625 C-177.1953125 170.43765625 -177.1953125 169.77765625 -177.1953125 169.09765625 C-176.5353125 169.09765625 -175.8753125 169.09765625 -175.1953125 169.09765625 C-174.9375 168.515 -174.6796875 167.93234375 -174.4140625 167.33203125 C-173.09697233 164.91736595 -171.64442866 163.28025448 -169.6953125 161.34765625 C-169.086875 160.7340625 -168.4784375 160.12046875 -167.8515625 159.48828125 C-166.1953125 158.09765625 -166.1953125 158.09765625 -164.1953125 158.09765625 C-164.1953125 157.43765625 -164.1953125 156.77765625 -164.1953125 156.09765625 C-163.5353125 156.09765625 -162.8753125 156.09765625 -162.1953125 156.09765625 C-161.9375 155.515 -161.6796875 154.93234375 -161.4140625 154.33203125 C-160.09697233 151.91736595 -158.64442866 150.28025448 -156.6953125 148.34765625 C-156.086875 147.7340625 -155.4784375 147.12046875 -154.8515625 146.48828125 C-153.1953125 145.09765625 -153.1953125 145.09765625 -151.1953125 145.09765625 C-151.1953125 144.43765625 -151.1953125 143.77765625 -151.1953125 143.09765625 C-150.5353125 143.09765625 -149.8753125 143.09765625 -149.1953125 143.09765625 C-149.1953125 142.43765625 -149.1953125 141.77765625 -149.1953125 141.09765625 C-148.5353125 141.09765625 -147.8753125 141.09765625 -147.1953125 141.09765625 C-146.958125 140.53594727 -146.7209375 139.97423828 -146.4765625 139.39550781 C-144.90211893 136.57182967 -142.97846705 134.62150783 -140.6953125 132.33203125 C-139.8084375 131.44257813 -138.9215625 130.553125 -138.0078125 129.63671875 C-137.0796875 128.71632813 -136.1515625 127.7959375 -135.1953125 126.84765625 C-134.2671875 125.91179687 -133.3390625 124.9759375 -132.3828125 124.01171875 C-131.4959375 123.12742187 -130.6090625 122.243125 -129.6953125 121.33203125 C-128.880625 120.51959961 -128.0659375 119.70716797 -127.2265625 118.87011719 C-125.1953125 117.09765625 -125.1953125 117.09765625 -123.1953125 117.09765625 C-123.1953125 116.43765625 -123.1953125 115.77765625 -123.1953125 115.09765625 C-122.5353125 115.09765625 -121.8753125 115.09765625 -121.1953125 115.09765625 C-121.1953125 114.43765625 -121.1953125 113.77765625 -121.1953125 113.09765625 C-120.5353125 113.09765625 -119.8753125 113.09765625 -119.1953125 113.09765625 C-118.80859375 112.22367188 -118.80859375 112.22367188 -118.4140625 111.33203125 C-117.09697233 108.91736595 -115.64442866 107.28025448 -113.6953125 105.34765625 C-113.086875 104.7340625 -112.4784375 104.12046875 -111.8515625 103.48828125 C-110.1953125 102.09765625 -110.1953125 102.09765625 -108.1953125 102.09765625 C-108.1953125 101.43765625 -108.1953125 100.77765625 -108.1953125 100.09765625 C-107.5353125 100.09765625 -106.8753125 100.09765625 -106.1953125 100.09765625 C-105.80859375 99.22367188 -105.80859375 99.22367188 -105.4140625 98.33203125 C-104.09697233 95.91736595 -102.64442866 94.28025448 -100.6953125 92.34765625 C-100.086875 91.7340625 -99.4784375 91.12046875 -98.8515625 90.48828125 C-97.1953125 89.09765625 -97.1953125 89.09765625 -95.1953125 89.09765625 C-95.1953125 88.43765625 -95.1953125 87.77765625 -95.1953125 87.09765625 C-94.5353125 87.09765625 -93.8753125 87.09765625 -93.1953125 87.09765625 C-92.80859375 86.22367188 -92.80859375 86.22367188 -92.4140625 85.33203125 C-91.09697233 82.91736595 -89.64442866 81.28025448 -87.6953125 79.34765625 C-87.086875 78.7340625 -86.4784375 78.12046875 -85.8515625 77.48828125 C-84.1953125 76.09765625 -84.1953125 76.09765625 -82.1953125 76.09765625 C-82.1953125 75.43765625 -82.1953125 74.77765625 -82.1953125 74.09765625 C-81.5353125 74.09765625 -80.8753125 74.09765625 -80.1953125 74.09765625 C-80.1953125 73.43765625 -80.1953125 72.77765625 -80.1953125 72.09765625 C-79.5353125 72.09765625 -78.8753125 72.09765625 -78.1953125 72.09765625 C-77.80859375 71.22367188 -77.80859375 71.22367188 -77.4140625 70.33203125 C-76.09697233 67.91736595 -74.64442866 66.28025448 -72.6953125 64.34765625 C-72.086875 63.7340625 -71.4784375 63.12046875 -70.8515625 62.48828125 C-69.1953125 61.09765625 -69.1953125 61.09765625 -67.1953125 61.09765625 C-67.1953125 60.43765625 -67.1953125 59.77765625 -67.1953125 59.09765625 C-66.5353125 59.09765625 -65.8753125 59.09765625 -65.1953125 59.09765625 C-64.80859375 58.22367188 -64.80859375 58.22367188 -64.4140625 57.33203125 C-63.09697233 54.91736595 -61.64442866 53.28025448 -59.6953125 51.34765625 C-59.086875 50.7340625 -58.4784375 50.12046875 -57.8515625 49.48828125 C-56.1953125 48.09765625 -56.1953125 48.09765625 -54.1953125 48.09765625 C-54.1953125 47.43765625 -54.1953125 46.77765625 -54.1953125 46.09765625 C-53.5353125 46.09765625 -52.8753125 46.09765625 -52.1953125 46.09765625 C-52.1953125 45.43765625 -52.1953125 44.77765625 -52.1953125 44.09765625 C-51.5353125 44.09765625 -50.8753125 44.09765625 -50.1953125 44.09765625 C-49.80859375 43.22367188 -49.80859375 43.22367188 -49.4140625 42.33203125 C-48.09697233 39.91736595 -46.64442866 38.28025448 -44.6953125 36.34765625 C-44.086875 35.7340625 -43.4784375 35.12046875 -42.8515625 34.48828125 C-41.1953125 33.09765625 -41.1953125 33.09765625 -39.1953125 33.09765625 C-39.1953125 32.43765625 -39.1953125 31.77765625 -39.1953125 31.09765625 C-38.5353125 31.09765625 -37.8753125 31.09765625 -37.1953125 31.09765625 C-36.80859375 30.22367188 -36.80859375 30.22367188 -36.4140625 29.33203125 C-35.09697233 26.91736595 -33.64442866 25.28025448 -31.6953125 23.34765625 C-31.086875 22.7340625 -30.4784375 22.12046875 -29.8515625 21.48828125 C-28.1953125 20.09765625 -28.1953125 20.09765625 -26.1953125 20.09765625 C-26.1953125 19.43765625 -26.1953125 18.77765625 -26.1953125 18.09765625 C-25.5353125 18.09765625 -24.8753125 18.09765625 -24.1953125 18.09765625 C-24.1953125 17.43765625 -24.1953125 16.77765625 -24.1953125 16.09765625 C-23.5353125 16.09765625 -22.8753125 16.09765625 -22.1953125 16.09765625 C-21.9271875 15.49953125 -21.6590625 14.90140625 -21.3828125 14.28515625 C-20.19613844 12.09917771 -19.09932137 10.68433031 -17.1953125 9.09765625 C-16.5353125 9.09765625 -15.8753125 9.09765625 -15.1953125 9.09765625 C-15.1953125 8.43765625 -15.1953125 7.77765625 -15.1953125 7.09765625 C-13.3203125 4.97265625 -13.3203125 4.97265625 -11.1953125 3.09765625 C-10.5353125 3.09765625 -9.8753125 3.09765625 -9.1953125 3.09765625 C-9.1953125 2.43765625 -9.1953125 1.77765625 -9.1953125 1.09765625 C-6.23720774 -0.38139613 -3.240597 -0.02425278 0 0 Z M-83.1953125 108.09765625 C-83.1953125 108.75765625 -83.1953125 109.41765625 -83.1953125 110.09765625 C-83.8553125 110.09765625 -84.5153125 110.09765625 -85.1953125 110.09765625 C-85.1953125 110.75765625 -85.1953125 111.41765625 -85.1953125 112.09765625 C-85.8553125 112.09765625 -86.5153125 112.09765625 -87.1953125 112.09765625 C-87.1953125 112.75765625 -87.1953125 113.41765625 -87.1953125 114.09765625 C-87.8553125 114.09765625 -88.5153125 114.09765625 -89.1953125 114.09765625 C-89.1953125 114.75765625 -89.1953125 115.41765625 -89.1953125 116.09765625 C-90.03835938 116.44957031 -90.03835938 116.44957031 -90.8984375 116.80859375 C-93.74167141 118.40428625 -95.67629377 120.38690168 -97.9453125 122.72265625 C-99.14414062 123.94855469 -99.14414062 123.94855469 -100.3671875 125.19921875 C-100.97046875 125.82570313 -101.57375 126.4521875 -102.1953125 127.09765625 C-101.5353125 127.42765625 -100.8753125 127.75765625 -100.1953125 128.09765625 C-100.1953125 128.75765625 -100.1953125 129.41765625 -100.1953125 130.09765625 C-99.5353125 130.09765625 -98.8753125 130.09765625 -98.1953125 130.09765625 C-97.9375 130.67 -97.6796875 131.24234375 -97.4140625 131.83203125 C-96.08165308 134.3089462 -94.54475132 136.23177285 -92.6953125 138.34765625 C-92.086875 139.0540625 -91.4784375 139.76046875 -90.8515625 140.48828125 C-89.34114882 142.32995129 -89.34114882 142.32995129 -87.1953125 142.09765625 C-87.1953125 142.75765625 -87.1953125 143.41765625 -87.1953125 144.09765625 C-86.5353125 144.09765625 -85.8753125 144.09765625 -85.1953125 144.09765625 C-85.1953125 144.75765625 -85.1953125 145.41765625 -85.1953125 146.09765625 C-84.5353125 146.09765625 -83.8753125 146.09765625 -83.1953125 146.09765625 C-83.1953125 146.75765625 -83.1953125 147.41765625 -83.1953125 148.09765625 C-82.5353125 148.09765625 -81.8753125 148.09765625 -81.1953125 148.09765625 C-80.9684375 148.63390625 -80.7415625 149.17015625 -80.5078125 149.72265625 C-78.7401857 152.92121903 -77.07016339 155.81011493 -74.1953125 158.09765625 C-71.17437216 158.91175689 -68.28605328 158.80002236 -65.17578125 158.68359375 C-63.88792473 158.67085922 -63.88792473 158.67085922 -62.5740509 158.65786743 C-59.84234019 158.62438422 -57.1136247 158.54911995 -54.3828125 158.47265625 C-52.52673546 158.44254983 -50.67061197 158.4151752 -48.81445312 158.390625 C-44.27359243 158.3246102 -39.73495954 158.22112806 -35.1953125 158.09765625 C-36.13598404 156.9960002 -37.0772669 155.89486612 -38.01879883 154.79394531 C-38.54290848 154.18069397 -39.06701813 153.56744263 -39.60700989 152.93560791 C-41.97941686 150.19030655 -44.42047873 147.51224872 -46.8828125 144.84765625 C-47.64621948 144.01947388 -47.64621948 144.01947388 -48.42504883 143.17456055 C-52.85873124 138.39619574 -57.45150228 133.79725908 -62.11328125 129.2421875 C-64.1953125 127.09765625 -64.1953125 127.09765625 -65.1953125 125.09765625 C-65.8553125 125.09765625 -66.5153125 125.09765625 -67.1953125 125.09765625 C-67.1953125 124.43765625 -67.1953125 123.77765625 -67.1953125 123.09765625 C-67.8553125 123.09765625 -68.5153125 123.09765625 -69.1953125 123.09765625 C-69.41058594 122.55625 -69.62585938 122.01484375 -69.84765625 121.45703125 C-71.66818045 118.26979467 -74.15290112 115.88919591 -76.7578125 113.34765625 C-77.26505859 112.84105469 -77.77230469 112.33445312 -78.29492188 111.8125 C-80.39293029 109.24341614 -80.39293029 109.24341614 -83.1953125 108.09765625 Z " fill="#69BEE8" transform="translate(356.1953125,160.90234375)"/>
<path d="M0 0 C77.22 0 154.44 0 234 0 C232.10523955 3.78952091 230.45852168 5.8106895 227.5 8.75 C226.7059375 9.54921875 225.911875 10.3484375 225.09375 11.171875 C223 13 223 13 221 13 C221 13.66 221 14.32 221 15 C220.34 15 219.68 15 219 15 C219 15.66 219 16.32 219 17 C218.34 17 217.68 17 217 17 C217 17.66 217 18.32 217 19 C216.34 19 215.68 19 215 19 C215 19.66 215 20.32 215 21 C214.34 21 213.68 21 213 21 C213 21.66 213 22.32 213 23 C212.34 23 211.68 23 211 23 C210.67 23.99 210.34 24.98 210 26 C209.34 26 208.68 26 208 26 C208 26.66 208 27.32 208 28 C207.34 28 206.68 28 206 28 C206 28.66 206 29.32 206 30 C205.34 30 204.68 30 204 30 C204 30.66 204 31.32 204 32 C203.34 32 202.68 32 202 32 C202 32.66 202 33.32 202 34 C201.34 34 200.68 34 200 34 C200 34.66 200 35.32 200 36 C199.34 36 198.68 36 198 36 C198 36.66 198 37.32 198 38 C197.34 38 196.68 38 196 38 C195.67 38.99 195.34 39.98 195 41 C194.34 41 193.68 41 193 41 C193 41.66 193 42.32 193 43 C192.34 43 191.68 43 191 43 C191 43.66 191 44.32 191 45 C190.34 45 189.68 45 189 45 C189 45.66 189 46.32 189 47 C188.34 47 187.68 47 187 47 C187 47.66 187 48.32 187 49 C186.34 49 185.68 49 185 49 C185 49.66 185 50.32 185 51 C184.34 51 183.68 51 183 51 C182.67 51.99 182.34 52.98 182 54 C181.34 54 180.68 54 180 54 C180 54.66 180 55.32 180 56 C179.34 56 178.68 56 178 56 C178 56.66 178 57.32 178 58 C177.34 58 176.68 58 176 58 C176 58.66 176 59.32 176 60 C175.34 60 174.68 60 174 60 C174 60.66 174 61.32 174 62 C173.34 62 172.68 62 172 62 C172 62.66 172 63.32 172 64 C171.34 64 170.68 64 170 64 C170 64.66 170 65.32 170 66 C169.34 66 168.68 66 168 66 C167.67 66.99 167.34 67.98 167 69 C166.34 69 165.68 69 165 69 C165 69.66 165 70.32 165 71 C164.34 71 163.68 71 163 71 C163 71.66 163 72.32 163 73 C162.34 73 161.68 73 161 73 C161 73.66 161 74.32 161 75 C160.34 75 159.68 75 159 75 C159 75.66 159 76.32 159 77 C158.34 77 157.68 77 157 77 C157 77.66 157 78.32 157 79 C156.34 79 155.68 79 155 79 C154.67 79.99 154.34 80.98 154 82 C153.34 82 152.68 82 152 82 C152 82.66 152 83.32 152 84 C151.34 84 150.68 84 150 84 C150 84.66 150 85.32 150 86 C149.34 86 148.68 86 148 86 C148 86.66 148 87.32 148 88 C147.34 88 146.68 88 146 88 C146 88.66 146 89.32 146 90 C145.34 90 144.68 90 144 90 C144 90.66 144 91.32 144 92 C143.34 92 142.68 92 142 92 C142 92.66 142 93.32 142 94 C140.625 95.625 140.625 95.625 139 97 C138.34 97 137.68 97 137 97 C137 97.66 137 98.32 137 99 C136.34 99 135.68 99 135 99 C135 99.66 135 100.32 135 101 C134.34 101 133.68 101 133 101 C133 101.66 133 102.32 133 103 C132.34 103 131.68 103 131 103 C131 103.66 131 104.32 131 105 C130.34 105 129.68 105 129 105 C129 105.66 129 106.32 129 107 C128.34 107 127.68 107 127 107 C126.67 107.99 126.34 108.98 126 110 C125.34 110 124.68 110 124 110 C124 110.66 124 111.32 124 112 C123.34 112 122.68 112 122 112 C122 112.66 122 113.32 122 114 C121.34 114 120.68 114 120 114 C120 114.66 120 115.32 120 116 C119.34 116 118.68 116 118 116 C118 116.66 118 117.32 118 118 C117.34 118 116.68 118 116 118 C116 118.66 116 119.32 116 120 C115.34 120 114.68 120 114 120 C114 120.66 114 121.32 114 122 C112.625 123.625 112.625 123.625 111 125 C110.34 125 109.68 125 109 125 C109 125.66 109 126.32 109 127 C108.34 127 107.68 127 107 127 C107 127.66 107 128.32 107 129 C106.34 129 105.68 129 105 129 C105 129.66 105 130.32 105 131 C104.34 131 103.68 131 103 131 C103 131.66 103 132.32 103 133 C102.34 133 101.68 133 101 133 C101 133.66 101 134.32 101 135 C100.34 135 99.68 135 99 135 C98.67 135.99 98.34 136.98 98 138 C97.34 138 96.68 138 96 138 C96 138.66 96 139.32 96 140 C95.34 140 94.68 140 94 140 C94 140.66 94 141.32 94 142 C93.34 142 92.68 142 92 142 C92 142.66 92 143.32 92 144 C91.34 144 90.68 144 90 144 C90 144.66 90 145.32 90 146 C89.34 146 88.68 146 88 146 C88 146.66 88 147.32 88 148 C87.34 148 86.68 148 86 148 C86 148.66 86 149.32 86 150 C84.625 151.625 84.625 151.625 83 153 C82.34 153 81.68 153 81 153 C81 153.66 81 154.32 81 155 C80.34 155 79.68 155 79 155 C79 155.66 79 156.32 79 157 C78.34 157 77.68 157 77 157 C77 157.66 77 158.32 77 159 C76.34 159 75.68 159 75 159 C75 159.66 75 160.32 75 161 C74.34 161 73.68 161 73 161 C73 161.66 73 162.32 73 163 C71.625 164.625 71.625 164.625 70 166 C69.34 166 68.68 166 68 166 C68 166.66 68 167.32 68 168 C67.34 168 66.68 168 66 168 C66 168.66 66 169.32 66 170 C65.34 170 64.68 170 64 170 C64 170.66 64 171.32 64 172 C63.34 172 62.68 172 62 172 C62 172.66 62 173.32 62 174 C61.34 174 60.68 174 60 174 C60 174.66 60 175.32 60 176 C59.34 176 58.68 176 58 176 C57.67 176.99 57.34 177.98 57 179 C56.34 179 55.68 179 55 179 C55 179.66 55 180.32 55 181 C54.34 181 53.68 181 53 181 C53 181.66 53 182.32 53 183 C52.34 183 51.68 183 51 183 C51 183.66 51 184.32 51 185 C50.34 185 49.68 185 49 185 C49 185.66 49 186.32 49 187 C48.34 187 47.68 187 47 187 C47 187.66 47 188.32 47 189 C46.34 189 45.68 189 45 189 C45 189.66 45 190.32 45 191 C44.34 191 43.68 191 43 191 C42.67 191.99 42.34 192.98 42 194 C41.34 194 40.68 194 40 194 C40 194.66 40 195.32 40 196 C39.34 196 38.68 196 38 196 C38 196.66 38 197.32 38 198 C37.34 198 36.68 198 36 198 C36 198.66 36 199.32 36 200 C35.34 200 34.68 200 34 200 C34 200.66 34 201.32 34 202 C33.34 202 32.68 202 32 202 C32 202.66 32 203.32 32 204 C29.625 206.625 29.625 206.625 27 209 C26.34 209 25.68 209 25 209 C25 209.66 25 210.32 25 211 C24.34 211 23.68 211 23 211 C23 211.66 23 212.32 23 213 C22.34 213 21.68 213 21 213 C21 213.66 21 214.32 21 215 C20.34 215 19.68 215 19 215 C19 215.66 19 216.32 19 217 C18.34 217 17.68 217 17 217 C17 217.66 17 218.32 17 219 C15.625 220.625 15.625 220.625 14 222 C13.34 222 12.68 222 12 222 C12 222.66 12 223.32 12 224 C11.34 224 10.68 224 10 224 C10 224.66 10 225.32 10 226 C9.34 226 8.68 226 8 226 C8 226.66 8 227.32 8 228 C7.34 228 6.68 228 6 228 C6 228.66 6 229.32 6 230 C-4.56 230 -15.12 230 -26 230 C-26 227 -26 227 -23.625 224.3125 C-21 222 -21 222 -19 222 C-19 221.34 -19 220.68 -19 220 C-18.34 220 -17.68 220 -17 220 C-17 219.34 -17 218.68 -17 218 C-16.34 218 -15.68 218 -15 218 C-15 217.34 -15 216.68 -15 216 C-14.34 216 -13.68 216 -13 216 C-12.773125 215.443125 -12.54625 214.88625 -12.3125 214.3125 C-10.62449964 211.33840412 -8.53323483 209.27991135 -6 207 C-5.34 207 -4.68 207 -4 207 C-4 206.34 -4 205.68 -4 205 C-3.34 205 -2.68 205 -2 205 C-2 204.34 -2 203.68 -2 203 C-1.34 203 -0.68 203 0 203 C0 202.34 0 201.68 0 201 C0.66 201 1.32 201 2 201 C2 200.34 2 199.68 2 199 C2.66 199 3.32 199 4 199 C4.2578125 198.41734375 4.515625 197.8346875 4.78125 197.234375 C6.09834017 194.8197097 7.55088384 193.18259823 9.5 191.25 C10.1084375 190.63640625 10.716875 190.0228125 11.34375 189.390625 C13 188 13 188 15 188 C15.268125 187.360625 15.53625 186.72125 15.8125 186.0625 C17 184 17 184 20 183 C20 182.34 20 181.68 20 181 C20.66 181 21.32 181 22 181 C22 180.34 22 179.68 22 179 C22.66 179 23.32 179 24 179 C24 178.34 24 177.68 24 177 C24.66 177 25.32 177 26 177 C26 176.34 26 175.68 26 175 C26.66 175 27.32 175 28 175 C28 174.34 28 173.68 28 173 C28.66 173 29.32 173 30 173 C30.268125 172.401875 30.53625 171.80375 30.8125 171.1875 C31.99917406 169.00152146 33.09599113 167.58667406 35 166 C35.66 166 36.32 166 37 166 C37 165.34 37 164.68 37 164 C37.66 164 38.32 164 39 164 C39 163.34 39 162.68 39 162 C39.66 162 40.32 162 41 162 C41 161.34 41 160.68 41 160 C41.66 160 42.32 160 43 160 C43 159.34 43 158.68 43 158 C43.66 158 44.32 158 45 158 C45.268125 157.401875 45.53625 156.80375 45.8125 156.1875 C46.99917406 154.00152146 48.09599113 152.58667406 50 151 C50.66 151 51.32 151 52 151 C52 150.34 52 149.68 52 149 C52.66 149 53.32 149 54 149 C54 148.34 54 147.68 54 147 C54.66 147 55.32 147 56 147 C56 146.34 56 145.68 56 145 C57.375 143.375 57.375 143.375 59 142 C59.66 142 60.32 142 61 142 C61 141.34 61 140.68 61 140 C61.66 140 62.32 140 63 140 C57.42427744 132.88234922 51.61511796 126.45368617 45.08984375 120.21484375 C43 118 43 118 43 116 C42.34 116 41.68 116 41 116 C41 115.34 41 114.68 41 114 C40.34 114 39.68 114 39 114 C39 113.34 39 112.68 39 112 C38.34 112 37.68 112 37 112 C37 111.34 37 110.68 37 110 C36.34 110 35.68 110 35 110 C35 109.34 35 108.68 35 108 C34.01 107.67 33.02 107.34 32 107 C30.4921875 105.46875 30.4921875 105.46875 28.875 103.5 C26.20785079 100.34893765 23.44435078 97.39410589 20.5 94.5 C17.0578872 91.10455991 13.84562602 87.59704453 10.70703125 83.921875 C8.36727811 81.28764491 5.84481518 78.86433083 3.28515625 76.4453125 C2 75 2 75 2 73 C1.34 73 0.68 73 0 73 C0 72.34 0 71.68 0 71 C-0.66 71 -1.32 71 -2 71 C-2 70.34 -2 69.68 -2 69 C-2.81984375 68.68482422 -2.81984375 68.68482422 -3.65625 68.36328125 C-6.85148112 66.50472181 -9.0728733 63.92215093 -11.5 61.1875 C-11.97308594 60.66607422 -12.44617188 60.14464844 -12.93359375 59.60742188 C-15.74055175 56.49333135 -18.41280978 53.30110828 -21 50 C-18.82779712 47.82779712 -13.68265998 48.84247358 -10.66259766 48.83886719 C-9.68215988 48.83390228 -8.70172211 48.82893738 -7.6915741 48.82382202 C-4.43239655 48.80915859 -1.17326768 48.80239151 2.0859375 48.796875 C4.34176638 48.79112705 6.59759524 48.78536928 8.85342407 48.77960205 C13.58978504 48.76908019 18.32612898 48.76324527 23.0625 48.75976562 C29.14147255 48.754278 35.22022143 48.73024907 41.29912376 48.70179367 C45.96073063 48.68320068 50.62228328 48.67796348 55.2839241 48.67642975 C57.52549081 48.6733952 59.76705638 48.66533988 62.00858688 48.65224457 C65.14050215 48.63525365 68.27186637 48.63704734 71.40380859 48.64355469 C72.33587631 48.6343399 73.26794403 48.62512512 74.22825623 48.6156311 C75.08076462 48.62120026 75.93327301 48.62676941 76.81161499 48.63250732 C77.92273179 48.63030748 77.92273179 48.63030748 79.05629539 48.6280632 C81.55382137 49.10597626 82.46267047 50.01098444 84 52 C84 52.66 84 53.32 84 54 C84.66 54 85.32 54 86 54 C86 54.66 86 55.32 86 56 C86.66 56 87.32 56 88 56 C88 56.66 88 57.32 88 58 C88.66 58 89.32 58 90 58 C90 58.66 90 59.32 90 60 C90.66 60 91.32 60 92 60 C92 60.66 92 61.32 92 62 C92.66 62 93.32 62 94 62 C95.7265625 63.6796875 95.7265625 63.6796875 97.625 65.875 C98.25664062 66.59429687 98.88828125 67.31359375 99.5390625 68.0546875 C101 70 101 70 101 72 C101.66 72 102.32 72 103 72 C103 72.66 103 73.32 103 74 C103.66 74 104.32 74 105 74 C105 74.66 105 75.32 105 76 C105.66 76 106.32 76 107 76 C107 76.66 107 77.32 107 78 C107.66 78 108.32 78 109 78 C109 78.66 109 79.32 109 80 C109.66 80 110.32 80 111 80 C112.70680947 81.62553283 114.37660195 83.29115995 116 85 C116.45375 84.505 116.9075 84.01 117.375 83.5 C119 82 119 82 121 82 C121 81.34 121 80.68 121 80 C121.66 80 122.32 80 123 80 C123 79.34 123 78.68 123 78 C123.66 78 124.32 78 125 78 C125 77.34 125 76.68 125 76 C125.66 76 126.32 76 127 76 C127 75.34 127 74.68 127 74 C127.66 74 128.32 74 129 74 C129 73.34 129 72.68 129 72 C129.66 72 130.32 72 131 72 C131 71.34 131 70.68 131 70 C132.6796875 68.37890625 132.6796875 68.37890625 134.875 66.5625 C137.46193722 64.41599116 139.11184374 62.83223438 141 60 C141.66 60 142.32 60 143 60 C143 59.34 143 58.68 143 58 C143.66 58 144.32 58 145 58 C145 57.34 145 56.68 145 56 C145.66 56 146.32 56 147 56 C147 55.34 147 54.68 147 54 C147.66 54 148.32 54 149 54 C149 53.34 149 52.68 149 52 C149.66 52 150.32 52 151 52 C151 51.34 151 50.68 151 50 C151.66 50 152.32 50 153 50 C153 49.34 153 48.68 153 48 C153.66 48 154.32 48 155 48 C155.268125 47.401875 155.53625 46.80375 155.8125 46.1875 C156.99917406 44.00152146 158.09599113 42.58667406 160 41 C160.66 41 161.32 41 162 41 C162 40.34 162 39.68 162 39 C162.66 39 163.32 39 164 39 C164 38.34 164 37.68 164 37 C164.66 37 165.32 37 166 37 C166 36.34 166 35.68 166 35 C166.66 35 167.32 35 168 35 C168 34.34 168 33.68 168 33 C168.66 33 169.32 33 170 33 C170 32.34 170 31.68 170 31 C171.75 29.2734375 171.75 29.2734375 174 27.375 C175.11375 26.42753906 175.11375 26.42753906 176.25 25.4609375 C176.8275 24.97882813 177.405 24.49671875 178 24 C177.20414616 24.01328213 176.40829231 24.02656425 175.58832169 24.04024887 C156.13723158 24.35787463 136.68786384 24.56267236 117.23431778 24.64509201 C107.82594549 24.68761551 98.42069169 24.76696813 89.01367188 24.93603516 C80.80493573 25.08346937 72.5990843 25.15873726 64.38897681 25.15080285 C60.04843319 25.14903824 55.71461454 25.18103557 51.37555695 25.29979706 C21.57544181 26.07755168 21.57544181 26.07755168 10.37527084 15.83952713 C0 4.95565509 0 4.95565509 0 0 Z M33 72 C33 72.66 33 73.32 33 74 C33.66 74 34.32 74 35 74 C35.21527344 74.54398437 35.43054688 75.08796875 35.65234375 75.6484375 C37.46379641 78.80929113 39.95496023 81.12763796 42.5625 83.625 C47.88006757 88.76013514 47.88006757 88.76013514 49 91 C49.66 91 50.32 91 51 91 C51 91.66 51 92.32 51 93 C51.66 93 52.32 93 53 93 C53 93.66 53 94.32 53 95 C53.66 95 54.32 95 55 95 C55.25450928 95.58120605 55.50901855 96.16241211 55.77124023 96.76123047 C57.13058676 99.23792581 58.63911097 100.85134445 60.66015625 102.8203125 C61.37107422 103.52027344 62.08199219 104.22023437 62.81445312 104.94140625 C63.55630859 105.66199219 64.29816406 106.38257813 65.0625 107.125 C66.53473193 108.56287561 68.00489156 110.00287708 69.47265625 111.4453125 C70.45117554 112.39688232 70.45117554 112.39688232 71.44946289 113.36767578 C73 115 73 115 74 117 C74.66 117 75.32 117 76 117 C76.433125 117.9590625 76.433125 117.9590625 76.875 118.9375 C77.82823451 121.15206079 77.82823451 121.15206079 80 122 C80.66 121.67 81.32 121.34 82 121 C82 120.34 82 119.68 82 119 C82.66 119 83.32 119 84 119 C84 118.34 84 117.68 84 117 C84.66 117 85.32 117 86 117 C86 116.34 86 115.68 86 115 C86.66 115 87.32 115 88 115 C88 114.34 88 113.68 88 113 C88.66 113 89.32 113 90 113 C90 112.34 90 111.68 90 111 C90.556875 110.773125 91.11375 110.54625 91.6875 110.3125 C94.68041199 108.61382022 96.73527237 106.57927313 99 104 C99 103.01 99 102.02 99 101 C98.34 101 97.68 101 97 101 C97 100.34 97 99.68 97 99 C96.34 99 95.68 99 95 99 C95 98.34 95 97.68 95 97 C94.34 97 93.68 97 93 97 C93 96.34 93 95.68 93 95 C92.34 95 91.68 95 91 95 C90.77441406 94.44570312 90.54882812 93.89140625 90.31640625 93.3203125 C88.61133714 90.31493845 86.42200049 88.27012997 83.9375 85.875 C79.09722222 81.19444444 79.09722222 81.19444444 78 79 C77.34 79 76.68 79 76 79 C76 78.34 76 77.68 76 77 C75.34 77 74.68 77 74 77 C73.690625 76.360625 73.38125 75.72125 73.0625 75.0625 C72.1654837 73.06389179 72.1654837 73.06389179 71 72 C68.1883662 71.91138008 65.40141745 71.88477645 62.58984375 71.90234375 C61.32679161 71.90446617 61.32679161 71.90446617 60.03822327 71.90663147 C57.33794665 71.91224737 54.63775172 71.92480252 51.9375 71.9375 C50.11132932 71.94251295 48.28515734 71.94707621 46.45898438 71.95117188 C41.97262458 71.96222196 37.48632616 71.97949721 33 72 Z " fill="#68BEE8" transform="translate(123,112)"/>
<path d="M0 0 C77.22 0 154.44 0 234 0 C233.34 1.32 232.68 2.64 232 4 C231.01 4.33 230.02 4.66 229 5 C229 4.34 229 3.68 229 3 C227.83194635 3.00092179 226.66389271 3.00184359 225.4604435 3.00279331 C197.75588272 3.02443413 170.05132278 3.04093198 142.3467553 3.05106533 C138.93950352 3.05231609 135.53225176 3.05361041 132.125 3.05493164 C131.44665507 3.05519395 130.76831014 3.05545626 130.0694093 3.05572652 C119.07442942 3.06008215 108.07945476 3.06796911 97.08447798 3.0771528 C85.80920507 3.08649231 74.53393478 3.09198135 63.25865781 3.09408849 C56.92274487 3.0953955 50.58684376 3.09848071 44.2509346 3.10573006 C38.29373298 3.11249121 32.33654812 3.11461676 26.37934303 3.11310768 C24.18710425 3.11338397 21.99486494 3.11538852 19.80262947 3.11920547 C16.82116766 3.12414418 13.83977003 3.1229976 10.85830688 3.12025452 C9.9808873 3.12316736 9.10346772 3.1260802 8.19945967 3.12908131 C2.22824242 3.11412121 2.22824242 3.11412121 0 2 C0 1.34 0 0.68 0 0 Z " fill="#94CDE9" transform="translate(123,112)"/>
<path d="M0 0 C0.98043777 -0.0049649 1.96087555 -0.00992981 2.97102356 -0.01504517 C6.2302011 -0.02970859 9.48932998 -0.03647568 12.74853516 -0.04199219 C15.00436404 -0.04774014 17.2601929 -0.05349791 19.51602173 -0.05926514 C24.2523827 -0.069787 28.98872663 -0.07562192 33.72509766 -0.07910156 C39.80407021 -0.08458919 45.88281908 -0.10861812 51.96172142 -0.13707352 C56.62332829 -0.1556665 61.28488093 -0.16090371 65.94652176 -0.16243744 C68.18808846 -0.16547199 70.42965403 -0.17352731 72.67118454 -0.18662262 C75.80309981 -0.20361353 78.93446403 -0.20181985 82.06640625 -0.1953125 C82.99847397 -0.20452728 83.93054169 -0.21374207 84.89085388 -0.22323608 C85.74336227 -0.21766693 86.59587067 -0.21209778 87.47421265 -0.20635986 C88.58532945 -0.2085597 88.58532945 -0.2085597 89.71889305 -0.21080399 C92.21641902 0.26710907 93.12526813 1.17211725 94.66259766 3.16113281 C94.66259766 3.82113281 94.66259766 4.48113281 94.66259766 5.16113281 C93.67259766 5.16113281 92.68259766 5.16113281 91.66259766 5.16113281 C91.66259766 4.50113281 91.66259766 3.84113281 91.66259766 3.16113281 C59.32259766 3.16113281 26.98259766 3.16113281 -6.33740234 3.16113281 C-6.66740234 3.82113281 -6.99740234 4.48113281 -7.33740234 5.16113281 C-8.32740234 3.84113281 -9.31740234 2.52113281 -10.33740234 1.16113281 C-8.16519946 -1.01107007 -3.02006233 0.00360639 0 0 Z " fill="#94C9E3" transform="translate(112.33740234375,160.8388671875)"/>
<path d="M0 0 C1.32 0.66 2.64 1.32 4 2 C4 2.66 4 3.32 4 4 C-29.66 4 -63.32 4 -98 4 C-98 3.67 -98 3.34 -98 3 C-65.66 3 -33.32 3 0 3 C0 2.01 0 1.02 0 0 Z " fill="#8FC8E4" transform="translate(370,338)"/>
<path d="M0 0 C0.66 0.33 1.32 0.66 2 1 C1.67 2.32 1.34 3.64 1 5 C-0.32 5.33 -1.64 5.66 -3 6 C-3.66 8.64 -4.32 11.28 -5 14 C-6.32 13.67 -7.64 13.34 -9 13 C-9.226875 13.556875 -9.45375 14.11375 -9.6875 14.6875 C-11.39848215 17.70208759 -13.372373 19.74774829 -16 22 C-17.32 22 -18.64 22 -20 22 C-18.60249952 18.84164893 -16.94801766 16.67727175 -14.5 14.25 C-13.8915625 13.63640625 -13.283125 13.0228125 -12.65625 12.390625 C-11 11 -11 11 -9 11 C-8.731875 10.360625 -8.46375 9.72125 -8.1875 9.0625 C-7 7 -7 7 -4 6 C-4 5.34 -4 4.68 -4 4 C-3.34 4 -2.68 4 -2 4 C-2 3.34 -2 2.68 -2 2 C-1.34 2 -0.68 2 0 2 C0 1.34 0 0.68 0 0 Z " fill="#8FCBE6" transform="translate(147,289)"/>
<path d="M0 0 C0.99 0.33 1.98 0.66 3 1 C2.01 1.495 2.01 1.495 1 2 C1 2.66 1 3.32 1 4 C0.34 4 -0.32 4 -1 4 C-1 4.66 -1 5.32 -1 6 C-1.66 6 -2.32 6 -3 6 C-3 6.66 -3 7.32 -3 8 C-3.66 8 -4.32 8 -5 8 C-5 8.66 -5 9.32 -5 10 C-5.66 10 -6.32 10 -7 10 C-7 10.66 -7 11.32 -7 12 C-9.375 14.625 -9.375 14.625 -12 17 C-12.66 17 -13.32 17 -14 17 C-14 16.01 -14 15.02 -14 14 C-14.66 14 -15.32 14 -16 14 C-15.67 13.01 -15.34 12.02 -15 11 C-13.35 11.33 -11.7 11.66 -10 12 C-10.061875 11.278125 -10.12375 10.55625 -10.1875 9.8125 C-9.96105777 6.4158666 -9.06745292 4.68003157 -7 2 C-6.01 2 -5.02 2 -4 2 C-4 2.66 -4 3.32 -4 4 C-3.34 4 -2.68 4 -2 4 C-1.34 2.68 -0.68 1.36 0 0 Z " fill="#81C3E6" transform="translate(162,304)"/>
<path d="M0 0 C0.70744354 0.00141495 1.41488708 0.0028299 2.14376831 0.00428772 C4.40578419 0.00989025 6.66770148 0.02244307 8.9296875 0.03515625 C10.46223815 0.04017093 11.99479036 0.04473389 13.52734375 0.04882812 C17.28649638 0.05986048 21.04557522 0.07712673 24.8046875 0.09765625 C24.8046875 0.75765625 24.8046875 1.41765625 24.8046875 2.09765625 C21.16785567 3.26663791 17.86634212 3.12640577 14.0703125 2.9765625 C12.77480469 2.92822266 11.47929687 2.87988281 10.14453125 2.83007812 C8.78124487 2.77356121 7.41796367 2.71691899 6.0546875 2.66015625 C4.67580138 2.60689803 3.29689515 2.55415791 1.91796875 2.50195312 C-1.45335783 2.37228672 -4.82438768 2.23731971 -8.1953125 2.09765625 C-8.1953125 2.75765625 -8.1953125 3.41765625 -8.1953125 4.09765625 C-9.1853125 4.42765625 -10.1753125 4.75765625 -11.1953125 5.09765625 C-11.1953125 4.43765625 -11.1953125 3.77765625 -11.1953125 3.09765625 C-10.5353125 3.09765625 -9.8753125 3.09765625 -9.1953125 3.09765625 C-9.1953125 2.43765625 -9.1953125 1.77765625 -9.1953125 1.09765625 C-6.23720774 -0.38139613 -3.240597 -0.02425278 0 0 Z " fill="#95C9E2" transform="translate(356.1953125,160.90234375)"/>
<path d="M0 0 C0.99 0.66 1.98 1.32 3 2 C2.67 3.32 2.34 4.64 2 6 C1.34 6 0.68 6 0 6 C0 6.66 0 7.32 0 8 C-0.66 8 -1.32 8 -2 8 C-2 8.66 -2 9.32 -2 10 C-2.66 10 -3.32 10 -4 10 C-4 10.66 -4 11.32 -4 12 C-4.66 12 -5.32 12 -6 12 C-6 12.66 -6 13.32 -6 14 C-6.66 14 -7.32 14 -8 14 C-8 12.35 -8 10.7 -8 9 C-8.66 8.67 -9.32 8.34 -10 8 C-7.92446352 7.4465236 -6.15634036 7 -4 7 C-4 5.68 -4 4.36 -4 3 C-3.01 2.67 -2.02 2.34 -1 2 C-0.67 1.34 -0.34 0.68 0 0 Z " fill="#84C7E8" transform="translate(316,147)"/>
<path d="M0 0 C0.99 0 1.98 0 3 0 C3 0.66 3 1.32 3 2 C3.66 2 4.32 2 5 2 C5 2.99 5 3.98 5 5 C4.34 5 3.68 5 3 5 C3 5.66 3 6.32 3 7 C2.34 7 1.68 7 1 7 C1 7.66 1 8.32 1 9 C-0.375 10.625 -0.375 10.625 -2 12 C-2.66 12 -3.32 12 -4 12 C-4 12.66 -4 13.32 -4 14 C-4.99 13.67 -5.98 13.34 -7 13 C-7 12.34 -7 11.68 -7 11 C-5.68 11 -4.36 11 -3 11 C-3.2475 10.484375 -3.495 9.96875 -3.75 9.4375 C-4.15027964 5.53477349 -2.06779228 3.25833935 0 0 Z " fill="#77C2E6" transform="translate(139,322)"/>
<path d="M0 0 C0 0.66 0 1.32 0 2 C-0.66 2 -1.32 2 -2 2 C-2 2.66 -2 3.32 -2 4 C-2.66 4 -3.32 4 -4 4 C-4 4.66 -4 5.32 -4 6 C-14.56 6 -25.12 6 -36 6 C-36 5.01 -36 4.02 -36 3 C-35.01 2.34 -34.02 1.68 -33 1 C-33.33 1.99 -33.66 2.98 -34 4 C-29.95857785 4.11662261 -25.91759135 4.1873935 -21.875 4.25 C-20.73289062 4.28351563 -19.59078125 4.31703125 -18.4140625 4.3515625 C-11.15844952 4.43593009 -6.02031511 0 0 0 Z " fill="#92CAE6" transform="translate(133,336)"/>
<path d="M0 0 C0.33 1.32 0.66 2.64 1 4 C0.071875 4.515625 -0.85625 5.03125 -1.8125 5.5625 C-4.74865593 7.46556403 -5.00497924 8.01351509 -6.3125 11.5625 C-8 15 -8 15 -10.1796875 16.1171875 C-12.44125478 16.8569525 -14.67683875 17.4886123 -17 18 C-15.71937515 16.2925002 -14.38232443 14.62626404 -13 13 C-12.34 13 -11.68 13 -11 13 C-11 12.34 -11 11.68 -11 11 C-10.34 11 -9.68 11 -9 11 C-8.74476563 10.41734375 -8.48953125 9.8346875 -8.2265625 9.234375 C-6.88258913 6.78611777 -5.38189704 5.18256752 -3.375 3.25 C-2.74335938 2.63640625 -2.11171875 2.0228125 -1.4609375 1.390625 C-0.73777344 0.70226562 -0.73777344 0.70226562 0 0 Z " fill="#8FCFE8" transform="translate(300,209)"/>
<path d="M0 0 C3.31152874 -0.36794764 4.60609252 -0.29809215 7.3125 1.75 C9 4 9 4 9 8 C9.99 7.67 10.98 7.34 12 7 C12.33 8.98 12.66 10.96 13 13 C8.11950075 9.0580583 3.9419417 4.88049925 0 0 Z " fill="#7FC4E4" transform="translate(125,186)"/>
<path d="M0 0 C2.00720923 0.28674418 4.0085944 0.61866701 6 1 C2.6189962 5.13621084 -0.66590534 8.81316569 -5 12 C-5 10.35 -5 8.7 -5 7 C-3.68 7 -2.36 7 -1 7 C-1.33 6.01 -1.66 5.02 -2 4 C-1.34 4 -0.68 4 0 4 C-0.33 3.01 -0.66 2.02 -1 1 C-0.67 0.67 -0.34 0.34 0 0 Z " fill="#89CCE8" transform="translate(369,167)"/>
<path d="M0 0 C0.99 0.495 0.99 0.495 2 1 C2 1.66 2 2.32 2 3 C2.66 3 3.32 3 4 3 C4 3.66 4 4.32 4 5 C4.66 5 5.32 5 6 5 C6 5.66 6 6.32 6 7 C6.66 7 7.32 7 8 7 C8 7.66 8 8.32 8 9 C8.66 9 9.32 9 10 9 C11.625 11.5 11.625 11.5 13 14 C12.01 14 11.02 14 10 14 C10 13.34 10 12.68 10 12 C9.34 12 8.68 12 8 12 C8 11.34 8 10.68 8 10 C6.35 9.67 4.7 9.34 3 9 C2.01 6.03 1.02 3.06 0 0 Z " fill="#8FC9E3" transform="translate(265,300)"/>
<path d="M0 0 C0 0.99 0 1.98 0 3 C-0.66 3 -1.32 3 -2 3 C-2 3.66 -2 4.32 -2 5 C-2.66 5 -3.32 5 -4 5 C-4 5.66 -4 6.32 -4 7 C-4.66 7 -5.32 7 -6 7 C-6 7.66 -6 8.32 -6 9 C-6.66 9 -7.32 9 -8 9 C-8.33 6.69 -8.66 4.38 -9 2 C-2.25 0 -2.25 0 0 0 Z " fill="#85C6E5" transform="translate(180,288)"/>
<path d="M0 0 C4.15358254 3.43469325 7.78875342 6.63270466 11 11 C9.35 10.67 7.7 10.34 6 10 C6 9.34 6 8.68 6 8 C4.02 8.99 4.02 8.99 2 10 C1.34 6.7 0.68 3.4 0 0 Z " fill="#8DCBE6" transform="translate(314,278)"/>
<path d="M0 0 C-0.33 1.32 -0.66 2.64 -1 4 C-1.66 4 -2.32 4 -3 4 C-3 4.66 -3 5.32 -3 6 C-3.66 6 -4.32 6 -5 6 C-5 6.66 -5 7.32 -5 8 C-5.66 8 -6.32 8 -7 8 C-7 8.66 -7 9.32 -7 10 C-7.66 10 -8.32 10 -9 10 C-9.33 10.66 -9.66 11.32 -10 12 C-10.33 9.69 -10.66 7.38 -11 5 C-9.35 4.67 -7.7 4.34 -6 4 C-5.67 3.01 -5.34 2.02 -5 1 C-2 0 -2 0 0 0 Z " fill="#8FCCEA" transform="translate(207,261)"/>
<path d="M0 0 C0.33 1.32 0.66 2.64 1 4 C0.34 4 -0.32 4 -1 4 C-1 4.66 -1 5.32 -1 6 C-1.66 6 -2.32 6 -3 6 C-3 6.66 -3 7.32 -3 8 C-3.66 8 -4.32 8 -5 8 C-5 8.66 -5 9.32 -5 10 C-5.66 10 -6.32 10 -7 10 C-7 10.66 -7 11.32 -7 12 C-7.66 12 -8.32 12 -9 12 C-9 11.01 -9 10.02 -9 9 C-8.01 9 -7.02 9 -6 9 C-6 7.35 -6 5.7 -6 4 C-5.34 4 -4.68 4 -4 4 C-4.33 3.01 -4.66 2.02 -5 1 C-2 0 -2 0 0 0 Z " fill="#7FC6EC" transform="translate(330,136)"/>
<path d="M0 0 C0.66 0 1.32 0 2 0 C1.11955395 4.74811977 -1.4790509 7.79913718 -5 11 C-7.875 11.9375 -7.875 11.9375 -10 12 C-10 11.34 -10 10.68 -10 10 C-9.34 10 -8.68 10 -8 10 C-8 9.34 -8 8.68 -8 8 C-7.34 8 -6.68 8 -6 8 C-6 7.34 -6 6.68 -6 6 C-5.34 6 -4.68 6 -4 6 C-4 5.34 -4 4.68 -4 4 C-3.34 4 -2.68 4 -2 4 C-2 3.34 -2 2.68 -2 2 C-1.34 2 -0.68 2 0 2 C0 1.34 0 0.68 0 0 Z " fill="#90CDE5" transform="translate(276,160)"/>
<path d="M0 0 C3.63 0 7.26 0 11 0 C9.68 1.65 8.36 3.3 7 5 C5.35 4.67 3.7 4.34 2 4 C2 3.34 2 2.68 2 2 C1.34 2 0.68 2 0 2 C0 1.34 0 0.68 0 0 Z " fill="#76C3EA" transform="translate(369,163)"/>
<path d="M0 0 C1.65 0 3.3 0 5 0 C3.625 2 3.625 2 2 4 C1.34 4 0.68 4 0 4 C0 4.66 0 5.32 0 6 C-0.66 6 -1.32 6 -2 6 C-2 6.66 -2 7.32 -2 8 C-2.66 8 -3.32 8 -4 8 C-4 8.66 -4 9.32 -4 10 C-4.66 9.67 -5.32 9.34 -6 9 C-5.67 7.35 -5.34 5.7 -5 4 C-4.01 3.67 -3.02 3.34 -2 3 C-1.34 2.67 -0.68 2.34 0 2 C0 1.34 0 0.68 0 0 Z " fill="#8FCBE8" transform="translate(344,121)"/>
<path d="M0 0 C0.66 0 1.32 0 2 0 C3.2890625 1.53125 3.2890625 1.53125 4.625 3.5 C5.07101562 4.1496875 5.51703125 4.799375 5.9765625 5.46875 C6.31429688 5.9740625 6.65203125 6.479375 7 7 C6.01 8.485 6.01 8.485 5 10 C2 9 2 9 0.875 7.125 C0.18238818 5.44294273 -0.4247585 3.72572449 -1 2 C-0.67 1.34 -0.34 0.68 0 0 Z " fill="#7FC6E7" transform="translate(256,291)"/>
<path d="M0 0 C0.66 0.99 1.32 1.98 2 3 C1.09515208 4.15518918 0.1755794 5.29885406 -0.75 6.4375 C-1.26046875 7.07558594 -1.7709375 7.71367187 -2.296875 8.37109375 C-4.19667629 10.18810554 -5.43586908 10.60423197 -8 11 C-8 8 -8 8 -6.125 5.8125 C-4 4 -4 4 -2 4 C-2 3.34 -2 2.68 -2 2 C-1.34 2 -0.68 2 0 2 C0 1.34 0 0.68 0 0 Z " fill="#89CBE8" transform="translate(250,259)"/>
<path d="M0 0 C0.66 0.33 1.32 0.66 2 1 C1.67 1.66 1.34 2.32 1 3 C0.34 3 -0.32 3 -1 3 C-1.1546875 3.8971875 -1.1546875 3.8971875 -1.3125 4.8125 C-2.13380325 7.42573762 -2.82068885 8.34672947 -5 10 C-8.1875 11.1875 -8.1875 11.1875 -11 12 C-10.07038578 10.84775972 -9.1309875 9.70340824 -8.1875 8.5625 C-7.40439453 7.60537109 -7.40439453 7.60537109 -6.60546875 6.62890625 C-5 5 -5 5 -2 4 C-2 3.34 -2 2.68 -2 2 C-1.34 2 -0.68 2 0 2 C0 1.34 0 0.68 0 0 Z " fill="#A5D5EC" transform="translate(332,177)"/>
<path d="M0 0 C0.66 0.99 1.32 1.98 2 3 C1.01 3.33 0.02 3.66 -1 4 C-2.22520264 7.00847418 -2.22520264 7.00847418 -3 10 C-4.98 10 -6.96 10 -9 10 C-8.67 9.34 -8.34 8.68 -8 8 C-7.34 8 -6.68 8 -6 8 C-6 7.34 -6 6.68 -6 6 C-5.34 6 -4.68 6 -4 6 C-3.71125 5.38125 -3.4225 4.7625 -3.125 4.125 C-2 2 -2 2 0 0 Z " fill="#85CBE8" transform="translate(170,339)"/>
<path d="M0 0 C0.66 0.99 1.32 1.98 2 3 C-3.0940919 9.86214442 -3.0940919 9.86214442 -6.875 10.4375 C-7.57625 10.293125 -8.2775 10.14875 -9 10 C-7.71937515 8.2925002 -6.38232443 6.62626404 -5 5 C-4.34 5 -3.68 5 -3 5 C-3 4.34 -3 3.68 -3 3 C-2.34 3 -1.68 3 -1 3 C-0.67 2.01 -0.34 1.02 0 0 Z " fill="#92CEE9" transform="translate(264,245)"/>
<path d="M0 0 C0.33 0.66 0.66 1.32 1 2 C1.66 2 2.32 2 3 2 C3 2.66 3 3.32 3 4 C3.66 4 4.32 4 5 4 C5 4.66 5 5.32 5 6 C5.66 6 6.32 6 7 6 C7 6.66 7 7.32 7 8 C7.66 8 8.32 8 9 8 C8.67 8.66 8.34 9.32 8 10 C6.35 9.67 4.7 9.34 3 9 C3.33 8.01 3.66 7.02 4 6 C3.01 6.33 2.02 6.66 1 7 C-0.0625 5.1875 -0.0625 5.1875 -1 3 C-0.67 2.01 -0.34 1.02 0 0 Z " fill="#89C9E4" transform="translate(208,166)"/>
<path d="M0 0 C1.65 0 3.3 0 5 0 C5.33 0.99 5.66 1.98 6 3 C6.99 3.66 7.98 4.32 9 5 C10.1875 8.125 10.1875 8.125 11 11 C6.86378916 7.6189962 3.18683431 4.33409466 0 0 Z " fill="#92CBE1" transform="translate(123,114)"/>
<path d="M0 0 C0.99 0 1.98 0 3 0 C3 0.66 3 1.32 3 2 C2.34 2 1.68 2 1 2 C0.67 2.99 0.34 3.98 0 5 C-0.66 5 -1.32 5 -2 5 C-2 5.66 -2 6.32 -2 7 C-2.66 7 -3.32 7 -4 7 C-4.33 7.66 -4.66 8.32 -5 9 C-5 6.36 -5 3.72 -5 1 C-3.515 1.99 -3.515 1.99 -2 3 C-1.34 2.01 -0.68 1.02 0 0 Z " fill="#93CCEA" transform="translate(221,245)"/>
<path d="M0 0 C-0.125 1.75 -0.125 1.75 -1 4 C-4.0625 6.25 -4.0625 6.25 -7 8 C-7.33 7.34 -7.66 6.68 -8 6 C-7.67 5.01 -7.34 4.02 -7 3 C-6.34 3 -5.68 3 -5 3 C-5 2.34 -5 1.68 -5 1 C-2 0 -2 0 0 0 Z " fill="#7EC1E2" transform="translate(294,146)"/>
<path d="M0 0 C0.99 0.33 1.98 0.66 3 1 C1.95125002 3.62187494 1.35068687 4.79371361 -1.125 6.25 C-1.74375 6.4975 -2.3625 6.745 -3 7 C-3 7.66 -3 8.32 -3 9 C-4.32 8.34 -5.64 7.68 -7 7 C-4.69 4.69 -2.38 2.38 0 0 Z " fill="#8BC8E5" transform="translate(147,362)"/>
<path d="M0 0 C0.60546875 1.8671875 0.60546875 1.8671875 1 4 C-1.29110324 6.88509297 -3.64335373 8.54545328 -7 10 C-7.99 10.495 -7.99 10.495 -9 11 C-7.59155282 7.78475695 -5.89655214 5.67816132 -3.375 3.25 C-2.74335938 2.63640625 -2.11171875 2.0228125 -1.4609375 1.390625 C-0.73777344 0.70226562 -0.73777344 0.70226562 0 0 Z " fill="#A5D9EE" transform="translate(218,291)"/>
<path d="M0 0 C-1.67401978 3.95677402 -4.13149285 6.84464213 -7 10 C-7.66 10 -8.32 10 -9 10 C-8.22240372 6.241618 -6.99863875 3.84260144 -4 1.3125 C-2 0 -2 0 0 0 Z " fill="#85C4E3" transform="translate(211,330)"/>
<path d="M0 0 C1.32 0.66 2.64 1.32 4 2 C3.4225 2.2475 2.845 2.495 2.25 2.75 C-0.11993416 3.92457068 -0.11993416 3.92457068 -2 6.0625 C-4.13302939 8.12887222 -5.17891723 8.42990619 -8 9 C-7.04270084 7.87411986 -6.08412105 6.7493285 -5.125 5.625 C-4.59132812 4.99851562 -4.05765625 4.37203125 -3.5078125 3.7265625 C-2.38567993 2.44163349 -1.20628025 1.20628025 0 0 Z " fill="#91CBEB" transform="translate(227,282)"/>
<path d="M0 0 C0.99 0 1.98 0 3 0 C3 0.66 3 1.32 3 2 C3.99 2 4.98 2 6 2 C6 2.66 6 3.32 6 4 C5.34 4 4.68 4 4 4 C4 4.66 4 5.32 4 6 C3.34 6 2.68 6 2 6 C1.67 6.66 1.34 7.32 1 8 C1 6.68 1 5.36 1 4 C0.34 4 -0.32 4 -1 4 C-0.67 2.68 -0.34 1.36 0 0 Z " fill="#84C7E8" transform="translate(235,226)"/>
<path d="M0 0 C1.98 0 3.96 0 6 0 C5.67 0.66 5.34 1.32 5 2 C4.34 2 3.68 2 3 2 C3 2.66 3 3.32 3 4 C2.34 4 1.68 4 1 4 C1 4.66 1 5.32 1 6 C0.34 6 -0.32 6 -1 6 C-1 6.66 -1 7.32 -1 8 C-1.66 8 -2.32 8 -3 8 C-3.33 8.66 -3.66 9.32 -4 10 C-4 9.01 -4 8.02 -4 7 C-3.34 7 -2.68 7 -2 7 C-1.34 4.69 -0.68 2.38 0 0 Z " fill="#92CBE7" transform="translate(358,179)"/>
<path d="M0 0 C0.33 0.99 0.66 1.98 1 3 C0.01 3.33 -0.98 3.66 -2 4 C-2.34342449 5.33076989 -2.67619874 6.66431979 -3 8 C-3.99 8.66 -4.98 9.32 -6 10 C-6.99 9.67 -7.98 9.34 -9 9 C-7.88121617 7.82737096 -6.75476949 6.66204862 -5.625 5.5 C-4.68527344 4.52546875 -4.68527344 4.52546875 -3.7265625 3.53125 C-2 2 -2 2 0 2 C0 1.34 0 0.68 0 0 Z " fill="#99D0E4" transform="translate(119,317)"/>
<path d="M0 0 C2.125 0.9375 2.125 0.9375 4 2 C3.01 2.495 3.01 2.495 2 3 C2 3.66 2 4.32 2 5 C1.34 5 0.68 5 0 5 C0 5.66 0 6.32 0 7 C-0.66 7 -1.32 7 -2 7 C-2 7.66 -2 8.32 -2 9 C-2.66 9 -3.32 9 -4 9 C-4 8.01 -4 7.02 -4 6 C-3.01 6 -2.02 6 -1 6 C-1.33 4.35 -1.66 2.7 -2 1 C-1.34 0.67 -0.68 0.34 0 0 Z " fill="#90CCEA" transform="translate(185,279)"/>
<path d="M0 0 C1.14926266 0.95421808 2.29430541 1.91352045 3.4375 2.875 C4.07558594 3.40867187 4.71367187 3.94234375 5.37109375 4.4921875 C7 6 7 6 8 8 C5.03 7.505 5.03 7.505 2 7 C2 6.01 2 5.02 2 4 C0.68 3.34 -0.64 2.68 -2 2 C-1.34 2 -0.68 2 0 2 C0 1.34 0 0.68 0 0 Z " fill="#92CDE3" transform="translate(335,370)"/>
<path d="M0 0 C0.99 0.33 1.98 0.66 3 1 C3 4 3 4 1.625 5.6875 C0 7 0 7 -2 7 C-2 7.66 -2 8.32 -2 9 C-2.99 8.67 -3.98 8.34 -5 8 C-5 7.34 -5 6.68 -5 6 C-3.68 6 -2.36 6 -1 6 C-1.309375 5.071875 -1.309375 5.071875 -1.625 4.125 C-1.810625 3.073125 -1.810625 3.073125 -2 2 C-1.34 1.34 -0.68 0.68 0 0 Z " fill="#8AC8E8" transform="translate(137,327)"/>
<path d="M0 0 C0.66 0.99 1.32 1.98 2 3 C1.195625 3.61875 0.39125 4.2375 -0.4375 4.875 C-3.03874519 6.74164041 -3.03874519 6.74164041 -4 9 C-6.5625 9.625 -6.5625 9.625 -9 10 C-7.38405168 7.95880212 -5.7143618 5.95927063 -4 4 C-3.34 4 -2.68 4 -2 4 C-2 3.34 -2 2.68 -2 2 C-1.34 2 -0.68 2 0 2 C0 1.34 0 0.68 0 0 Z " fill="#96CFE5" transform="translate(162,274)"/>
<path d="M0 0 C0.99 0.33 1.98 0.66 3 1 C3 1.99 3 2.98 3 4 C2.34 4 1.68 4 1 4 C1 4.66 1 5.32 1 6 C0.34 6 -0.32 6 -1 6 C-1 6.66 -1 7.32 -1 8 C-1.66 7.67 -2.32 7.34 -3 7 C-3 5.02 -3 3.04 -3 1 C-2.01 1.33 -1.02 1.66 0 2 C0 1.34 0 0.68 0 0 Z " fill="#84C8E7" transform="translate(244,220)"/>
<path d="M0 0 C1.8125 0.125 1.8125 0.125 4 1 C5.8125 3.9375 5.8125 3.9375 7 7 C6.67 7.66 6.34 8.32 6 9 C3.69 6.69 1.38 4.38 -1 2 C-0.67 1.34 -0.34 0.68 0 0 Z " fill="#8DCDE7" transform="translate(144,204)"/>
<path d="M0 0 C0 2.83967231 -0.40267181 5.23735711 -1 8 C-2.98 8 -4.96 8 -7 8 C-6.02133662 6.85373678 -5.04205413 5.70800212 -4.0625 4.5625 C-3.51722656 3.92441406 -2.97195313 3.28632813 -2.41015625 2.62890625 C-1.63204305 1.73008851 -0.84063472 0.84063472 0 0 Z " fill="#A0D4EB" transform="translate(272,237)"/>
<path d="M0 0 C3.63 0 7.26 0 11 0 C10.34 1.32 9.68 2.64 9 4 C8.34 4 7.68 4 7 4 C7 3.34 7 2.68 7 2 C5.02 2 3.04 2 1 2 C0.67 1.34 0.34 0.68 0 0 Z " fill="#7CBAD8" transform="translate(345,113)"/>
<path d="M0 0 C0.33 0.66 0.66 1.32 1 2 C0.0625 4.125 0.0625 4.125 -1 6 C-1.99 6 -2.98 6 -4 6 C-4.33 7.32 -4.66 8.64 -5 10 C-5.66 9.67 -6.32 9.34 -7 9 C-5.44499019 5.18315774 -2.96404505 2.80804268 0 0 Z " fill="#A3D3EB" transform="translate(313,196)"/>
<path d="M0 0 C0.99 0 1.98 0 3 0 C3.33 0.99 3.66 1.98 4 3 C4.66 3.33 5.32 3.66 6 4 C6 5.65 6 7.3 6 9 C0.42857143 3.85714286 0.42857143 3.85714286 0 0 Z " fill="#8BC7E2" transform="translate(112,170)"/>
<path d="M0 0 C-0.66 1.65 -1.32 3.3 -2 5 C-2.66 5 -3.32 5 -4 5 C-4 5.66 -4 6.32 -4 7 C-4.66 7 -5.32 7 -6 7 C-6 7.66 -6 8.32 -6 9 C-6.66 8.67 -7.32 8.34 -8 8 C-3.45945946 0 -3.45945946 0 0 0 Z " fill="#95CDE9" transform="translate(320,221)"/>
<path d="M0 0 C0.66 0 1.32 0 2 0 C2.33 1.32 2.66 2.64 3 4 C2.34 4 1.68 4 1 4 C1 4.66 1 5.32 1 6 C0.34 6 -0.32 6 -1 6 C-1.33 6.66 -1.66 7.32 -2 8 C-2.125 5.125 -2.125 5.125 -2 2 C-1.34 1.34 -0.68 0.68 0 0 Z " fill="#8ACAEA" transform="translate(167,297)"/>
<path d="M0 0 C-1.01176437 3.40320742 -1.64843582 4.75725331 -4.625 6.8125 C-5.40875 7.204375 -6.1925 7.59625 -7 8 C-6.67 6.35 -6.34 4.7 -6 3 C-5.34 3 -4.68 3 -4 3 C-4 2.34 -4 1.68 -4 1 C-2 0 -2 0 0 0 Z " fill="#7AC0DE" transform="translate(155,284)"/>
<path d="M0 0 C1.98 0.66 3.96 1.32 6 2 C6.33 3.98 6.66 5.96 7 8 C5.8274869 7.04882866 4.66212985 6.08882991 3.5 5.125 C2.8503125 4.59132812 2.200625 4.05765625 1.53125 3.5078125 C1.0259375 3.01023438 0.520625 2.51265625 0 2 C0 1.34 0 0.68 0 0 Z " fill="#91CCE9" transform="translate(166,228)"/>
<path d="M0 0 C0.33 1.32 0.66 2.64 1 4 C-2.25978366 6.22257977 -5.44774296 8.28564986 -9 10 C-8.06409496 8.8944811 -7.12620142 7.79064547 -6.1875 6.6875 C-5.66542969 6.07261719 -5.14335937 5.45773438 -4.60546875 4.82421875 C-3.12827531 3.14575321 -1.59960869 1.56117966 0 0 Z " fill="#BCDEEF" transform="translate(300,209)"/>
<path d="M0 0 C0.66 0 1.32 0 2 0 C1.35455571 3.48539917 -0.10134397 6.02819057 -2 9 C-2.66 8.67 -3.32 8.34 -4 8 C-4 6.68 -4 5.36 -4 4 C-3.34 4 -2.68 4 -2 4 C-2 3.34 -2 2.68 -2 2 C-1.34 2 -0.68 2 0 2 C0 1.34 0 0.68 0 0 Z " fill="#89CAE8" transform="translate(248,188)"/>
<path d="M0 0 C1.65 0 3.3 0 5 0 C6.0625 1.8125 6.0625 1.8125 7 4 C6.67 4.99 6.34 5.98 6 7 C4.02 4.69 2.04 2.38 0 0 Z " fill="#93CAE6" transform="translate(125,186)"/>
<path d="M0 0 C1.32 0 2.64 0 4 0 C4 0.99 4 1.98 4 3 C4.99 2.67 5.98 2.34 7 2 C7.33 3.98 7.66 5.96 8 8 C6.85073734 7.04578192 5.70569459 6.08647955 4.5625 5.125 C3.92441406 4.59132812 3.28632813 4.05765625 2.62890625 3.5078125 C1 2 1 2 0 0 Z " fill="#80C0DD" transform="translate(134,125)"/>
<path d="M0 0 C3.31832766 0.98652984 4.76548627 1.68731503 6.875 4.5 C7.24625 5.325 7.6175 6.15 8 7 C7.67 7.66 7.34 8.32 7 9 C5.83037314 7.69013727 4.66437056 6.3770374 3.5 5.0625 C2.8503125 4.33160156 2.200625 3.60070312 1.53125 2.84765625 C0 1 0 1 0 0 Z " fill="#94CEE5" transform="translate(252,319)"/>
<path d="M0 0 C0.66 0 1.32 0 2 0 C0.87548273 2.9719385 -0.22293791 5.33440687 -2 8 C-2.99 8 -3.98 8 -5 8 C-4.67 6.68 -4.34 5.36 -4 4 C-3.34 4 -2.68 4 -2 4 C-2 3.34 -2 2.68 -2 2 C-1.34 2 -0.68 2 0 2 C0 1.34 0 0.68 0 0 Z " fill="#80C2E0" transform="translate(125,311)"/>
<path d="M0 0 C1.98 1.65 3.96 3.3 6 5 C5.67 5.66 5.34 6.32 5 7 C2.9375 7.625 2.9375 7.625 1 8 C1 6.68 1 5.36 1 4 C0.7018576 2.65835921 0.37756808 1.32148827 0 0 Z " fill="#87C7E9" transform="translate(329,294)"/>
<path d="M0 0 C1.4540625 0.0309375 1.4540625 0.0309375 2.9375 0.0625 C2.6075 1.0525 2.2775 2.0425 1.9375 3.0625 C1.2775 3.0625 0.6175 3.0625 -0.0625 3.0625 C-0.0625 3.7225 -0.0625 4.3825 -0.0625 5.0625 C-0.7225 5.0625 -1.3825 5.0625 -2.0625 5.0625 C-2.3925 5.7225 -2.7225 6.3825 -3.0625 7.0625 C-3.44383299 5.0710944 -3.77575582 3.06970923 -4.0625 1.0625 C-3.0625 0.0625 -3.0625 0.0625 0 0 Z " fill="#8FCAE6" transform="translate(232.0625,233.9375)"/>
<path d="M0 0 C2.97 0.495 2.97 0.495 6 1 C5.01 1.495 5.01 1.495 4 2 C2.86649466 4.01669827 2.86649466 4.01669827 2 6 C1.34 6 0.68 6 0 6 C0 4.02 0 2.04 0 0 Z " fill="#8CCBEA" transform="translate(340,196)"/>
<path d="M0 0 C1.98 1.65 3.96 3.3 6 5 C5.67 5.66 5.34 6.32 5 7 C3.68 6.67 2.36 6.34 1 6 C0.4465236 3.92446352 0 2.15634036 0 0 Z " fill="#ACD5E7" transform="translate(349,384)"/>
<path d="M0 0 C1.32 0.66 2.64 1.32 4 2 C4 2.66 4 3.32 4 4 C4.66 4 5.32 4 6 4 C6 4.66 6 5.32 6 6 C3.69 5.34 1.38 4.68 -1 4 C-0.67 2.68 -0.34 1.36 0 0 Z " fill="#8ACAE6" transform="translate(363,330)"/>
<path d="M0 0 C0.66 0.33 1.32 0.66 2 1 C0.41641358 4.16717283 -0.45263699 5.73268318 -3.6875 7.3125 C-4.450625 7.539375 -5.21375 7.76625 -6 8 C-6 7.34 -6 6.68 -6 6 C-5.34 6 -4.68 6 -4 6 C-4 5.34 -4 4.68 -4 4 C-3.34 4 -2.68 4 -2 4 C-2 3.34 -2 2.68 -2 2 C-1.34 2 -0.68 2 0 2 C0 1.34 0 0.68 0 0 Z " fill="#9BD0E7" transform="translate(213,223)"/>
<path d="M0 0 C1.98 1.65 3.96 3.3 6 5 C5.67 5.66 5.34 6.32 5 7 C4.34 7 3.68 7 3 7 C2.01 7.495 2.01 7.495 1 8 C0.67 5.36 0.34 2.72 0 0 Z " fill="#9DD7F0" transform="translate(300,263)"/>
<path d="M0 0 C0.66 0.33 1.32 0.66 2 1 C1.67 1.99 1.34 2.98 1 4 C0.34 4 -0.32 4 -1 4 C-1.33 5.32 -1.66 6.64 -2 8 C-2.99 7.67 -3.98 7.34 -5 7 C-5 5 -5 5 -3.625 3.375 C-2 2 -2 2 0 2 C0 1.34 0 0.68 0 0 Z " fill="#97CEE9" transform="translate(184,252)"/>
<path d="M0 0 C0.66 0 1.32 0 2 0 C1.01347016 3.31832766 0.31268497 4.76548627 -2.5 6.875 C-3.325 7.24625 -4.15 7.6175 -5 8 C-5.66 7.67 -6.32 7.34 -7 7 C-5.37660195 5.29115995 -3.70680947 3.62553283 -2 2 C-1.34 2 -0.68 2 0 2 C0 1.34 0 0.68 0 0 Z " fill="#B3DAEC" transform="translate(341,168)"/>
<path d="M0 0 C1.67542976 0.28604898 3.34385343 0.61781233 5 1 C4.01 1.495 4.01 1.495 3 2 C3 2.66 3 3.32 3 4 C2.34 4 1.68 4 1 4 C0.67 4.66 0.34 5.32 0 6 C-0.38218767 4.34385343 -0.71395102 2.67542976 -1 1 C-0.67 0.67 -0.34 0.34 0 0 Z " fill="#8FCBEA" transform="translate(154,310)"/>
<path d="M0 0 C0.66 0.99 1.32 1.98 2 3 C1.34 3 0.68 3 0 3 C0 3.66 0 4.32 0 5 C-0.66 5 -1.32 5 -2 5 C-2 5.66 -2 6.32 -2 7 C-2.99 7.33 -3.98 7.66 -5 8 C-5 6.68 -5 5.36 -5 4 C-3.68 4 -2.36 4 -1 4 C-0.67 2.68 -0.34 1.36 0 0 Z " fill="#9AD0E9" transform="translate(269,270)"/>
<path d="M0 0 C0.66 0 1.32 0 2 0 C1.8125 1.8125 1.8125 1.8125 1 4 C-1.4375 5.8125 -1.4375 5.8125 -4 7 C-4.66 6.67 -5.32 6.34 -6 6 C-4.68 5.34 -3.36 4.68 -2 4 C-2 3.34 -2 2.68 -2 2 C-1.34 2 -0.68 2 0 2 C0 1.34 0 0.68 0 0 Z " fill="#A4D3E8" transform="translate(177,259)"/>
<path d="M0 0 C2.31 1.98 4.62 3.96 7 6 C5.68 6.33 4.36 6.66 3 7 C0 2.25 0 2.25 0 0 Z " fill="#9BD2E9" transform="translate(184,215)"/>
<path d="M0 0 C0.33 1.32 0.66 2.64 1 4 C-1.475 5.485 -1.475 5.485 -4 7 C-4 4 -4 4 -2 1.8125 C-1.34 1.214375 -0.68 0.61625 0 0 Z " fill="#A7D8EB" transform="translate(283,153)"/>
<path d="M0 0 C0.99 0.33 1.98 0.66 3 1 C1.29374499 3.78388975 0.52373261 4.85384206 -2.6875 5.75 C-3.8321875 5.87375 -3.8321875 5.87375 -5 6 C-4.67 5.34 -4.34 4.68 -4 4 C-3.34 4 -2.68 4 -2 4 C-2 3.34 -2 2.68 -2 2 C-1.34 2 -0.68 2 0 2 C0 1.34 0 0.68 0 0 Z " fill="#94CFE9" transform="translate(207,302)"/>
<path d="M0 0 C0.99 0 1.98 0 3 0 C4.32 2.31 5.64 4.62 7 7 C4.13302508 5.71480435 2.02392288 4.42870746 0 2 C0 1.34 0 0.68 0 0 Z " fill="#7EC0DE" transform="translate(175,237)"/>
<path d="M0 0 C0.33 0.66 0.66 1.32 1 2 C1.99 2.33 2.98 2.66 4 3 C2.35 4.32 0.7 5.64 -1 7 C-1.04254356 5.00045254 -1.04080783 2.99958364 -1 1 C-0.67 0.67 -0.34 0.34 0 0 Z " fill="#96D2EC" transform="translate(325,212)"/>
<path d="M0 0 C0.99 0 1.98 0 3 0 C3 0.99 3 1.98 3 3 C2.34 3 1.68 3 1 3 C1 3.66 1 4.32 1 5 C0.34 5 -0.32 5 -1 5 C-1 5.66 -1 6.32 -1 7 C-1.66 7 -2.32 7 -3 7 C-3 6.01 -3 5.02 -3 4 C-2.01 4 -1.02 4 0 4 C0 2.68 0 1.36 0 0 Z " fill="#9CCFE9" transform="translate(324,141)"/>
<path d="M0 0 C0.99 0 1.98 0 3 0 C1.63016497 3.16115776 1.0109362 3.9927092 -2 6 C-1.125 1.125 -1.125 1.125 0 0 Z " fill="#7EC2E2" transform="translate(222,316)"/>
<path d="M0 0 C2.475 0.495 2.475 0.495 5 1 C5.33 2.65 5.66 4.3 6 6 C3.97945196 4.35830472 1.97956942 2.69088222 0 1 C0 0.67 0 0.34 0 0 Z " fill="#ADD8EA" transform="translate(313,310)"/>
<path d="M0 0 C2.35953094 2.35953094 2.49141413 3.77895617 3 7 C1.02 5.35 -0.96 3.7 -3 2 C-2.01 1.34 -1.02 0.68 0 0 Z " fill="#91D1E7" transform="translate(243,306)"/>
<path d="M0 0 C1.32 0.33 2.64 0.66 4 1 C4 2.32 4 3.64 4 5 C3.34 5 2.68 5 2 5 C1.67 5.66 1.34 6.32 1 7 C0.67 4.69 0.34 2.38 0 0 Z " fill="#86C7E7" transform="translate(196,266)"/>
<path d="M0 0 C0.33 1.32 0.66 2.64 1 4 C-0.32 4.33 -1.64 4.66 -3 5 C-3 5.66 -3 6.32 -3 7 C-3.99 6.67 -4.98 6.34 -6 6 C-5.34 6 -4.68 6 -4 6 C-3.71125 5.38125 -3.4225 4.7625 -3.125 4.125 C-2 2 -2 2 0 0 Z " fill="#A6D6ED" transform="translate(282,227)"/>
<path d="M0 0 C1.65 0 3.3 0 5 0 C5.33 1.65 5.66 3.3 6 5 C5.01 5.495 5.01 5.495 4 6 C4 5.01 4 4.02 4 3 C3.34 3 2.68 3 2 3 C2 2.34 2 1.68 2 1 C1.34 0.67 0.68 0.34 0 0 Z " fill="#94D0E9" transform="translate(218,210)"/>
<path d="M0 0 C1.65 1.65 3.3 3.3 5 5 C4.01 5.495 4.01 5.495 3 6 C3 5.34 3 4.68 3 4 C1.35 4 -0.3 4 -2 4 C-2 3.34 -2 2.68 -2 2 C-1.34 2 -0.68 2 0 2 C0 1.34 0 0.68 0 0 Z " fill="#86C8E9" transform="translate(165,195)"/>
<path d="M0 0 C0 3 0 3 -1.875 5.1875 C-4 7 -4 7 -6 7 C-6 6.34 -6 5.68 -6 5 C-5.34 5 -4.68 5 -4 5 C-4 4.34 -4 3.68 -4 3 C-2 1.375 -2 1.375 0 0 Z " fill="#95CDE5" transform="translate(258,179)"/>
<path d="M0 0 C-2.97 2.475 -2.97 2.475 -6 5 C-6 3.35 -6 1.7 -6 0 C-2.25 -1.125 -2.25 -1.125 0 0 Z " fill="#97D6EC" transform="translate(370,174)"/>
<path d="M0 0 C0.66 0 1.32 0 2 0 C1.60196439 2.88575819 1.20990931 3.82189513 -1.0625 5.75 C-1.701875 6.1625 -2.34125 6.575 -3 7 C-3.66 6.67 -4.32 6.34 -5 6 C-3.38405168 3.95880212 -1.7143618 1.95927063 0 0 Z " fill="#8DC9E5" transform="translate(264,172)"/>
<path d="M0 0 C2.31 0 4.62 0 7 0 C7.66 1.32 8.32 2.64 9 4 C8.01 4 7.02 4 6 4 C6 3.34 6 2.68 6 2 C3.03 1.505 3.03 1.505 0 1 C0 0.67 0 0.34 0 0 Z " fill="#85C3DF" transform="translate(198,162)"/>
</svg>
